# xmcd
#
# Track frame offsets:
#	150
#	14757
#	30971
#	51400
#	76956
#	94017
#	111914
#	140141
#	164631
#	165083
#	181793
#
# Disc length: 2667 seconds
#
# Revision: 0
# Processed by: cddbd v1.4PL0 Copyright (c) Steve Scherf et al.
# Submitted via: EasyCDDAExtractor 4.6.0.1
#
DISCID=880a690b
DTITLE=Neol Davies Box of Blues - Box of Blues
DYEAR=2000
DGENRE=Blues
TTITLE0=This Time It Is For Real
TTITLE1=Pack A Pistol
TTITLE2=Since Your Love Gone Away
TTITLE3=Box Of Blues
TTITLE4=Come On Home
TTITLE5=Distant Rain
TTITLE6=Driving Round Town
TTITLE7=Thunderstorm In My Heart
TTITLE8=Bad Case of Hit and Run
TTITLE9=Here Comes Love
TTITLE10=Paradise Revisited
EXTD=
EXTT0=
EXTT1=
EXTT2=
EXTT3=
EXTT4=
EXTT5=
EXTT6=
EXTT7=
EXTT8=
EXTT9=
EXTT10=
PLAYORDER=
